{"title":"World War Z 2013 BRRip 720p x264 AAC - PRiSTiNE [P2PDL]","uid":8878101,"size":841217511,"categoryP":"video","categoryS":"hd___movies","magnet":"?xt=urn:btih:389d428ff2af4a6c915aed7ed0be636556780e5f&amp;dn=World+War+Z+2013+BRRip+720p+x264+AAC+-+PRiSTiNE+%5BP2PDL%5D&amp;tr=udp%3A%2F%2Ftracker.openbittorrent.com%3A80&amp;tr=udp%3A%2F%2Fopen.demonii.com%3A1337&amp;tr=udp%3A%2F%2Ftracker.coppersurfer.tk%3A6969&amp;tr=udp%3A%2F%2Fexodus.desync.com%3A6969","seeders":5,"leechers":2,"uploader":"ValidusVyto","files":-1,"time":1378260205,"description":"_______ Visit us at our Semi Public Bittorrent Community ________\n  &lt;a href=&quot;\nhttp://p2pdl.com&quot; rel=&quot;nofollow&quot; target=&quot;_NEW&quot;&gt;\nhttp://p2pdl.com&lt;/a&gt;  _____________________________ &lt;a href=&quot; http://p2pdl.com&quot; rel=&quot;nofollow&quot; target=&quot;_NEW&quot;&gt; http://p2pdl.com&lt;/a&gt;\n\n\nWorld War Z 2013 BRRip 720p x264 AAC - PRiSTiNE\n\n\nGenre:  Action | Adventure | Horror | Sci-Fi | Thriller\nPlot: United Nations employee Gerry Lane traverses the \nworld in a race against time to stop the Zombie pandemic \nthat is toppling armies and governments, and threatening \nto destroy humanity itself.\nDirector: Marc Forster\nStars:  Brad Pitt, Mireille Enos, Daniella Kertesz\nRated: Rated PG-13 for intense frightening zombie sequences, \nviolence and disturbing images\n\n\nIMDb: &lt;a href=&quot;\nhttp://www.imdb.com/title/tt0816711/&quot; rel=&quot;nofollow&quot; target=&quot;_NEW&quot;&gt;\nhttp://www.imdb.com/title/tt0816711/&lt;/a&gt;\n\n\nGeneral\nFormat                         : MPEG-4\nFile size                      : 796 MiB\nDuration                       : 2h 3mn\nOverall bit rate mode          : Variable\nOverall bit rate               : 904 Kbps\n\nVideo\nFormat                         : AVC\nBit rate                       : 820 Kbps\nWidth                          : 1 280 pixels\nHeight                         : 536 pixels\nDisplay aspect ratio           : 2.40:1\nFrame rate mode                : Variable\nFrame rate                     : 23.976 fps\nStream size                    : 722 MiB (91%)\nWriting library                : x264 core 135 r2345 f0c1c53\n\nAudio\nFormat                         : AAC\nBit rate                       : 80.0 Kbps\nChannel(s)                     : 2 channels\nChannel positions              : Front: L R\nSampling rate                  : 48.0 KHz / 24.0 KHz\nStream size                    : 70.4 MiB (9%)\nLanguage                       : English\n\nSubtitle                       : Yes (English)\n\nSource                         : Unrated.Cut.720p.BluRay.x264.DTS-WiKi\n &lt;a href=&quot;\nhttp://someimage.com/X4iEmiC&quot; rel=&quot;nofollow&quot; target=&quot;_NEW&quot;&gt;\nhttp://someimage.com/X4iEmiC&lt;/a&gt; &lt;a href=&quot;\nhttp://someimage.com/licpbXu&quot; rel=&quot;nofollow&quot; target=&quot;_NEW&quot;&gt;\nhttp://someimage.com/licpbXu&lt;/a&gt; &lt;a href=&quot;\nhttp://someimage.com/MtJADyd&quot; rel=&quot;nofollow&quot; target=&quot;_NEW&quot;&gt;\nhttp://someimage.com/MtJADyd&lt;/a&gt; &lt;a href=&quot;\nhttp://someimage.com/CYVONfG&quot; rel=&quot;nofollow&quot; target=&quot;_NEW&quot;&gt;\nhttp://someimage.com/CYVONfG&lt;/a&gt; &lt;a href=&quot;\nhttp://someimage.com/26cP1lj&quot; rel=&quot;nofollow&quot; target=&quot;_NEW&quot;&gt;\nhttp://someimage.com/26cP1lj&lt;/a&gt; &lt;a href=&quot;\nhttp://someimage.com/euMpCPF&quot; rel=&quot;nofollow&quot; target=&quot;_NEW&quot;&gt;\nhttp://someimage.com/euMpCPF&lt;/a&gt;\n\n----------------------------------------------------------------------------------------------------\n\n\nRecommend to you to use latest version of VLC player. Install K-Lite Codec Pack or shark007 codecs\nin case of any kind of problem in playback (For non-VLC Media Player users). Alternatively, install\nCore AVC codecs, the fastest decoder that there is coupled with Community Center Codec Pack and play\non Windows Media Player Classic. Check sample to be sure.\nEnjoy!\n\nEncoder Notes:Looking For Early Access To Anything You Can Provide DVDScr, R5, DVDR, BluRay, Direct\nAudio, Music Releases and Seedboxes. We require dedicated servers, so as to do more \nand fast releases of movies.\nIf You Got anything to offer please contact us at &quot;&lt;a class=&quot;__cf_email__&quot; href=&quot;/cdn-cgi/l/email-protection&quot; data-cfemail=&quot;37474550775f42445f1954585a&quot;&gt;[email&amp;#160;protected]&lt;/a&gt;&lt;script cf-hash='f9e31' type=&quot;text/javascript&quot;&gt;\n/* &lt;![CDATA[ */!function(){try{var t=&quot;currentScript&quot;in document?document.currentScript:function(){for(var t=document.getElementsByTagName(&quot;script&quot;),e=t.length;e--;)if(t[e].getAttribute(&quot;cf-hash&quot;))return t[e]}();if(t&amp;&amp;t.previousSibling){var e,r,n,i,c=t.previousSibling,a=c.getAttribute(&quot;data-cfemail&quot;);if(a){for(e=&quot;&quot;,r=parseInt(a.substr(0,2),16),n=2;a.length-n;n+=2)i=parseInt(a.substr(n,2),16)^r,e+=String.fromCharCode(i);e=document.createTextNode(e),c.parentNode.replaceChild(e,c)}}}catch(u){}}();/* ]]&gt; */&lt;/script&gt;&quot;.\n\nFace book Fan Page:  \nSearch P2PDL on FB and hit like!!!\n\nFor more of our team uploads visit @                                 &lt;a href=&quot;\nhttp://thepiratebay.se/user/vitamin_x&quot; rel=&quot;nofollow&quot; target=&quot;_NEW&quot;&gt;\nhttp://thepiratebay.se/user/vitamin_x&lt;/a&gt;\t","torrent":{"xt":"urn:btih:389d428ff2af4a6c915aed7ed0be636556780e5f","amp;dn":"World+War+Z+2013+BRRip+720p+x264+AAC+-+PRiSTiNE+%5BP2PDL%5D","amp;tr":["udp%3A%2F%2Ftracker.openbittorrent.com%3A80","udp%3A%2F%2Fopen.demonii.com%3A1337","udp%3A%2F%2Ftracker.coppersurfer.tk%3A6969","udp%3A%2F%2Fexodus.desync.com%3A6969"],"infoHash":"389d428ff2af4a6c915aed7ed0be636556780e5f","infoHashBuffer":{"type":"Buffer","data":[56,157,66,143,242,175,74,108,145,90,237,126,208,190,99,101,86,120,14,95]},"announce":[],"urlList":[]}}